<?xml version="1.0" encoding="utf-8" standalone="no"?>
<!DOCTYPE svg PUBLIC "-//W3C//DTD SVG 1.1//EN"
  "http://www.w3.org/Graphics/SVG/1.1/DTD/svg11.dtd">
<!-- Created with matplotlib (http://matplotlib.org/) -->
<svg height="345pt" version="1.1" viewBox="0 0 460 345" width="460pt" xmlns="http://www.w3.org/2000/svg" xmlns:xlink="http://www.w3.org/1999/xlink">
 <defs>
  <style type="text/css">
*{stroke-linecap:butt;stroke-linejoin:round;}
  </style>
 </defs>
 <g id="figure_1">
  <g id="patch_1">
   <path d="M 0 345.6 
L 460.8 345.6 
L 460.8 0 
L 0 0 
z
" style="fill:#f0f0f0;"/>
  </g>
  <g id="axes_1">
   <g id="patch_2">
    <path d="M 36.864 293.76 
L 437.76 293.76 
L 437.76 41.472 
L 36.864 41.472 
z
" style="fill:#f0f0f0;"/>
   </g>
   <g id="matplotlib.axis_1">
    <g id="xtick_1">
     <g id="line2d_1">
      <path clip-path="url(#p31a50c8001)" d="M 55.086545 293.76 
L 55.086545 41.472 
" style="fill:none;stroke:#808080;stroke-dasharray:2,3.3;stroke-dashoffset:0;stroke-width:2;"/>
     </g>
     <g id="line2d_2"/>
     <g id="text_1">
      <!-- 0 -->
      <defs>
       <path d="M 31.78125 66.40625 
Q 24.171875 66.40625 20.328125 58.90625 
Q 16.5 51.421875 16.5 36.375 
Q 16.5 21.390625 20.328125 13.890625 
Q 24.171875 6.390625 31.78125 6.390625 
Q 39.453125 6.390625 43.28125 13.890625 
Q 47.125 21.390625 47.125 36.375 
Q 47.125 51.421875 43.28125 58.90625 
Q 39.453125 66.40625 31.78125 66.40625 
z
M 31.78125 74.21875 
Q 44.046875 74.21875 50.515625 64.515625 
Q 56.984375 54.828125 56.984375 36.375 
Q 56.984375 17.96875 50.515625 8.265625 
Q 44.046875 -1.421875 31.78125 -1.421875 
Q 19.53125 -1.421875 13.0625 8.265625 
Q 6.59375 17.96875 6.59375 36.375 
Q 6.59375 54.828125 13.0625 64.515625 
Q 19.53125 74.21875 31.78125 74.21875 
z
" id="DejaVuSans-30"/>
      </defs>
      <g transform="translate(50.632795 307.897812)scale(0.14 -0.14)">
       <use xlink:href="#DejaVuSans-30"/>
      </g>
     </g>
    </g>
    <g id="xtick_2">
     <g id="line2d_3">
      <path clip-path="url(#p31a50c8001)" d="M 107.150961 293.76 
L 107.150961 41.472 
" style="fill:none;stroke:#808080;stroke-dasharray:2,3.3;stroke-dashoffset:0;stroke-width:2;"/>
     </g>
     <g id="line2d_4"/>
     <g id="text_2">
      <!-- 20 -->
      <defs>
       <path d="M 19.1875 8.296875 
L 53.609375 8.296875 
L 53.609375 0 
L 7.328125 0 
L 7.328125 8.296875 
Q 12.9375 14.109375 22.625 23.890625 
Q 32.328125 33.6875 34.8125 36.53125 
Q 39.546875 41.84375 41.421875 45.53125 
Q 43.3125 49.21875 43.3125 52.78125 
Q 43.3125 58.59375 39.234375 62.25 
Q 35.15625 65.921875 28.609375 65.921875 
Q 23.96875 65.921875 18.8125 64.3125 
Q 13.671875 62.703125 7.8125 59.421875 
L 7.8125 69.390625 
Q 13.765625 71.78125 18.9375 73 
Q 24.125 74.21875 28.421875 74.21875 
Q 39.75 74.21875 46.484375 68.546875 
Q 53.21875 62.890625 53.21875 53.421875 
Q 53.21875 48.921875 51.53125 44.890625 
Q 49.859375 40.875 45.40625 35.40625 
Q 44.1875 33.984375 37.640625 27.21875 
Q 31.109375 20.453125 19.1875 8.296875 
z
" id="DejaVuSans-32"/>
      </defs>
      <g transform="translate(98.243461 307.897812)scale(0.14 -0.14)">
       <use xlink:href="#DejaVuSans-32"/>
       <use x="63.623047" xlink:href="#DejaVuSans-30"/>
      </g>
     </g>
    </g>
    <g id="xtick_3">
     <g id="line2d_5">
      <path clip-path="url(#p31a50c8001)" d="M 159.215377 293.76 
L 159.215377 41.472 
" style="fill:none;stroke:#808080;stroke-dasharray:2,3.3;stroke-dashoffset:0;stroke-width:2;"/>
     </g>
     <g id="line2d_6"/>
     <g id="text_3">
      <!-- 40 -->
      <defs>
       <path d="M 37.796875 64.3125 
L 12.890625 25.390625 
L 37.796875 25.390625 
z
M 35.203125 72.90625 
L 47.609375 72.90625 
L 47.609375 25.390625 
L 58.015625 25.390625 
L 58.015625 17.1875 
L 47.609375 17.1875 
L 47.609375 0 
L 37.796875 0 
L 37.796875 17.1875 
L 4.890625 17.1875 
L 4.890625 26.703125 
z
" id="DejaVuSans-34"/>
      </defs>
      <g transform="translate(150.307877 307.897812)scale(0.14 -0.14)">
       <use xlink:href="#DejaVuSans-34"/>
       <use x="63.623047" xlink:href="#DejaVuSans-30"/>
      </g>
     </g>
    </g>
    <g id="xtick_4">
     <g id="line2d_7">
      <path clip-path="url(#p31a50c8001)" d="M 211.279792 293.76 
L 211.279792 41.472 
" style="fill:none;stroke:#808080;stroke-dasharray:2,3.3;stroke-dashoffset:0;stroke-width:2;"/>
     </g>
     <g id="line2d_8"/>
     <g id="text_4">
      <!-- 60 -->
      <defs>
       <path d="M 33.015625 40.375 
Q 26.375 40.375 22.484375 35.828125 
Q 18.609375 31.296875 18.609375 23.390625 
Q 18.609375 15.53125 22.484375 10.953125 
Q 26.375 6.390625 33.015625 6.390625 
Q 39.65625 6.390625 43.53125 10.953125 
Q 47.40625 15.53125 47.40625 23.390625 
Q 47.40625 31.296875 43.53125 35.828125 
Q 39.65625 40.375 33.015625 40.375 
z
M 52.59375 71.296875 
L 52.59375 62.3125 
Q 48.875 64.0625 45.09375 64.984375 
Q 41.3125 65.921875 37.59375 65.921875 
Q 27.828125 65.921875 22.671875 59.328125 
Q 17.53125 52.734375 16.796875 39.40625 
Q 19.671875 43.65625 24.015625 45.921875 
Q 28.375 48.1875 33.59375 48.1875 
Q 44.578125 48.1875 50.953125 41.515625 
Q 57.328125 34.859375 57.328125 23.390625 
Q 57.328125 12.15625 50.6875 5.359375 
Q 44.046875 -1.421875 33.015625 -1.421875 
Q 20.359375 -1.421875 13.671875 8.265625 
Q 6.984375 17.96875 6.984375 36.375 
Q 6.984375 53.65625 15.1875 63.9375 
Q 23.390625 74.21875 37.203125 74.21875 
Q 40.921875 74.21875 44.703125 73.484375 
Q 48.484375 72.75 52.59375 71.296875 
z
" id="DejaVuSans-36"/>
      </defs>
      <g transform="translate(202.372292 307.897812)scale(0.14 -0.14)">
       <use xlink:href="#DejaVuSans-36"/>
       <use x="63.623047" xlink:href="#DejaVuSans-30"/>
      </g>
     </g>
    </g>
    <g id="xtick_5">
     <g id="line2d_9">
      <path clip-path="url(#p31a50c8001)" d="M 263.344208 293.76 
L 263.344208 41.472 
" style="fill:none;stroke:#808080;stroke-dasharray:2,3.3;stroke-dashoffset:0;stroke-width:2;"/>
     </g>
     <g id="line2d_10"/>
     <g id="text_5">
      <!-- 80 -->
      <defs>
       <path d="M 31.78125 34.625 
Q 24.75 34.625 20.71875 30.859375 
Q 16.703125 27.09375 16.703125 20.515625 
Q 16.703125 13.921875 20.71875 10.15625 
Q 24.75 6.390625 31.78125 6.390625 
Q 38.8125 6.390625 42.859375 10.171875 
Q 46.921875 13.96875 46.921875 20.515625 
Q 46.921875 27.09375 42.890625 30.859375 
Q 38.875 34.625 31.78125 34.625 
z
M 21.921875 38.8125 
Q 15.578125 40.375 12.03125 44.71875 
Q 8.5 49.078125 8.5 55.328125 
Q 8.5 64.0625 14.71875 69.140625 
Q 20.953125 74.21875 31.78125 74.21875 
Q 42.671875 74.21875 48.875 69.140625 
Q 55.078125 64.0625 55.078125 55.328125 
Q 55.078125 49.078125 51.53125 44.71875 
Q 48 40.375 41.703125 38.8125 
Q 48.828125 37.15625 52.796875 32.3125 
Q 56.78125 27.484375 56.78125 20.515625 
Q 56.78125 9.90625 50.3125 4.234375 
Q 43.84375 -1.421875 31.78125 -1.421875 
Q 19.734375 -1.421875 13.25 4.234375 
Q 6.78125 9.90625 6.78125 20.515625 
Q 6.78125 27.484375 10.78125 32.3125 
Q 14.796875 37.15625 21.921875 38.8125 
z
M 18.3125 54.390625 
Q 18.3125 48.734375 21.84375 45.5625 
Q 25.390625 42.390625 31.78125 42.390625 
Q 38.140625 42.390625 41.71875 45.5625 
Q 45.3125 48.734375 45.3125 54.390625 
Q 45.3125 60.0625 41.71875 63.234375 
Q 38.140625 66.40625 31.78125 66.40625 
Q 25.390625 66.40625 21.84375 63.234375 
Q 18.3125 60.0625 18.3125 54.390625 
z
" id="DejaVuSans-38"/>
      </defs>
      <g transform="translate(254.436708 307.897812)scale(0.14 -0.14)">
       <use xlink:href="#DejaVuSans-38"/>
       <use x="63.623047" xlink:href="#DejaVuSans-30"/>
      </g>
     </g>
    </g>
    <g id="xtick_6">
     <g id="line2d_11">
      <path clip-path="url(#p31a50c8001)" d="M 315.408623 293.76 
L 315.408623 41.472 
" style="fill:none;stroke:#808080;stroke-dasharray:2,3.3;stroke-dashoffset:0;stroke-width:2;"/>
     </g>
     <g id="line2d_12"/>
     <g id="text_6">
      <!-- 100 -->
      <defs>
       <path d="M 12.40625 8.296875 
L 28.515625 8.296875 
L 28.515625 63.921875 
L 10.984375 60.40625 
L 10.984375 69.390625 
L 28.421875 72.90625 
L 38.28125 72.90625 
L 38.28125 8.296875 
L 54.390625 8.296875 
L 54.390625 0 
L 12.40625 0 
z
" id="DejaVuSans-31"/>
      </defs>
      <g transform="translate(302.047373 307.897812)scale(0.14 -0.14)">
       <use xlink:href="#DejaVuSans-31"/>
       <use x="63.623047" xlink:href="#DejaVuSans-30"/>
       <use x="127.246094" xlink:href="#DejaVuSans-30"/>
      </g>
     </g>
    </g>
    <g id="xtick_7">
     <g id="line2d_13">
      <path clip-path="url(#p31a50c8001)" d="M 367.473039 293.76 
L 367.473039 41.472 
" style="fill:none;stroke:#808080;stroke-dasharray:2,3.3;stroke-dashoffset:0;stroke-width:2;"/>
     </g>
     <g id="line2d_14"/>
     <g id="text_7">
      <!-- 120 -->
      <g transform="translate(354.111789 307.897812)scale(0.14 -0.14)">
       <use xlink:href="#DejaVuSans-31"/>
       <use x="63.623047" xlink:href="#DejaVuSans-32"/>
       <use x="127.246094" xlink:href="#DejaVuSans-30"/>
      </g>
     </g>
    </g>
    <g id="xtick_8">
     <g id="line2d_15">
      <path clip-path="url(#p31a50c8001)" d="M 419.537455 293.76 
L 419.537455 41.472 
" style="fill:none;stroke:#808080;stroke-dasharray:2,3.3;stroke-dashoffset:0;stroke-width:2;"/>
     </g>
     <g id="line2d_16"/>
     <g id="text_8">
      <!-- 140 -->
      <g transform="translate(406.176205 307.897812)scale(0.14 -0.14)">
       <use xlink:href="#DejaVuSans-31"/>
       <use x="63.623047" xlink:href="#DejaVuSans-34"/>
       <use x="127.246094" xlink:href="#DejaVuSans-30"/>
      </g>
     </g>
    </g>
   </g>
   <g id="matplotlib.axis_2">
    <g id="ytick_1">
     <g id="line2d_17">
      <path clip-path="url(#p31a50c8001)" d="M 36.864 282.292364 
L 437.76 282.292364 
" style="fill:none;stroke:#808080;stroke-dasharray:2,3.3;stroke-dashoffset:0;stroke-width:2;"/>
     </g>
     <g id="line2d_18"/>
     <g id="text_9">
      <!-- 0.0 -->
      <defs>
       <path d="M 10.6875 12.40625 
L 21 12.40625 
L 21 0 
L 10.6875 0 
z
" id="DejaVuSans-2e"/>
      </defs>
      <g transform="translate(11.099625 287.61127)scale(0.14 -0.14)">
       <use xlink:href="#DejaVuSans-30"/>
       <use x="63.623047" xlink:href="#DejaVuSans-2e"/>
       <use x="95.410156" xlink:href="#DejaVuSans-30"/>
      </g>
     </g>
    </g>
    <g id="ytick_2">
     <g id="line2d_19">
      <path clip-path="url(#p31a50c8001)" d="M 36.864 236.394235 
L 437.76 236.394235 
" style="fill:none;stroke:#808080;stroke-dasharray:2,3.3;stroke-dashoffset:0;stroke-width:2;"/>
     </g>
     <g id="line2d_20"/>
     <g id="text_10">
      <!-- 0.2 -->
      <g transform="translate(11.099625 241.713141)scale(0.14 -0.14)">
       <use xlink:href="#DejaVuSans-30"/>
       <use x="63.623047" xlink:href="#DejaVuSans-2e"/>
       <use x="95.410156" xlink:href="#DejaVuSans-32"/>
      </g>
     </g>
    </g>
    <g id="ytick_3">
     <g id="line2d_21">
      <path clip-path="url(#p31a50c8001)" d="M 36.864 190.496107 
L 437.76 190.496107 
" style="fill:none;stroke:#808080;stroke-dasharray:2,3.3;stroke-dashoffset:0;stroke-width:2;"/>
     </g>
     <g id="line2d_22"/>
     <g id="text_11">
      <!-- 0.4 -->
      <g transform="translate(11.099625 195.815013)scale(0.14 -0.14)">
       <use xlink:href="#DejaVuSans-30"/>
       <use x="63.623047" xlink:href="#DejaVuSans-2e"/>
       <use x="95.410156" xlink:href="#DejaVuSans-34"/>
      </g>
     </g>
    </g>
    <g id="ytick_4">
     <g id="line2d_23">
      <path clip-path="url(#p31a50c8001)" d="M 36.864 144.597978 
L 437.76 144.597978 
" style="fill:none;stroke:#808080;stroke-dasharray:2,3.3;stroke-dashoffset:0;stroke-width:2;"/>
     </g>
     <g id="line2d_24"/>
     <g id="text_12">
      <!-- 0.6 -->
      <g transform="translate(11.099625 149.916884)scale(0.14 -0.14)">
       <use xlink:href="#DejaVuSans-30"/>
       <use x="63.623047" xlink:href="#DejaVuSans-2e"/>
       <use x="95.410156" xlink:href="#DejaVuSans-36"/>
      </g>
     </g>
    </g>
    <g id="ytick_5">
     <g id="line2d_25">
      <path clip-path="url(#p31a50c8001)" d="M 36.864 98.69985 
L 437.76 98.69985 
" style="fill:none;stroke:#808080;stroke-dasharray:2,3.3;stroke-dashoffset:0;stroke-width:2;"/>
     </g>
     <g id="line2d_26"/>
     <g id="text_13">
      <!-- 0.8 -->
      <g transform="translate(11.099625 104.018756)scale(0.14 -0.14)">
       <use xlink:href="#DejaVuSans-30"/>
       <use x="63.623047" xlink:href="#DejaVuSans-2e"/>
       <use x="95.410156" xlink:href="#DejaVuSans-38"/>
      </g>
     </g>
    </g>
    <g id="ytick_6">
     <g id="line2d_27">
      <path clip-path="url(#p31a50c8001)" d="M 36.864 52.801721 
L 437.76 52.801721 
" style="fill:none;stroke:#808080;stroke-dasharray:2,3.3;stroke-dashoffset:0;stroke-width:2;"/>
     </g>
     <g id="line2d_28"/>
     <g id="text_14">
      <!-- 1.0 -->
      <g transform="translate(11.099625 58.120628)scale(0.14 -0.14)">
       <use xlink:href="#DejaVuSans-31"/>
       <use x="63.623047" xlink:href="#DejaVuSans-2e"/>
       <use x="95.410156" xlink:href="#DejaVuSans-30"/>
      </g>
     </g>
    </g>
   </g>
   <g id="line2d_29">
    <path clip-path="url(#p31a50c8001)" d="M 55.086545 52.939636 
L 55.086545 52.941842 
L 69.924904 53.182242 
L 82.160042 53.585612 
L 91.531636 54.111138 
L 99.080977 54.752411 
L 105.328706 55.495977 
L 110.79547 56.361026 
L 115.74159 57.367307 
L 120.167065 58.49366 
L 124.071896 59.703714 
L 127.716405 61.0509 
L 131.100592 62.521733 
L 134.484779 64.236786 
L 137.608644 66.066834 
L 140.732509 68.1644 
L 143.596052 70.349016 
L 146.459595 72.809961 
L 149.323138 75.572658 
L 152.186681 78.662106 
L 155.050223 82.101963 
L 157.913766 85.913409 
L 160.777309 90.113827 
L 163.640852 94.715315 
L 166.504395 99.723107 
L 169.62826 105.64552 
L 173.012447 112.581796 
L 176.656956 120.60754 
L 180.561787 129.752498 
L 185.507906 141.928202 
L 200.085943 178.226061 
L 203.990774 187.169761 
L 207.635283 194.966385 
L 211.01947 201.665969 
L 214.143335 207.359461 
L 217.2672 212.572467 
L 220.130743 216.93263 
L 222.994286 220.904196 
L 225.857829 224.504383 
L 228.721371 227.754471 
L 231.584914 230.678305 
L 234.448457 233.301028 
L 237.572322 235.848639 
L 240.696187 238.100502 
L 243.820052 240.087472 
L 247.204239 241.974491 
L 250.848748 243.735287 
L 254.493257 245.251367 
L 258.398088 246.641918 
L 262.563242 247.89771 
L 267.249039 249.074757 
L 272.455481 250.141325 
L 278.182566 251.078085 
L 284.690618 251.906166 
L 291.979636 252.605346 
L 300.570265 253.201467 
L 310.983148 253.692751 
L 323.999252 254.075315 
L 341.440831 254.353786 
L 367.733361 254.531086 
L 419.01681 254.612489 
L 419.537455 254.612732 
L 419.537455 254.612732 
" style="fill:none;stroke:#0000cc;stroke-width:4;"/>
   </g>
   <g id="line2d_30">
    <path clip-path="url(#p31a50c8001)" d="M 55.086545 282.182032 
L 55.086545 282.181832 
L 73.569413 282.051552 
L 90.230026 281.740364 
L 101.944519 281.306375 
L 111.055792 280.749873 
L 118.605132 280.066057 
L 124.852862 279.287523 
L 130.579948 278.353068 
L 135.78639 277.276007 
L 140.472187 276.085659 
L 144.897662 274.740681 
L 149.323138 273.157891 
L 153.488291 271.436191 
L 157.653444 269.484769 
L 162.078919 267.169959 
L 167.025039 264.330112 
L 174.574379 259.695241 
L 181.342753 255.631762 
L 185.247584 253.537384 
L 188.631771 251.97383 
L 191.495314 250.883577 
L 194.098535 250.107047 
L 196.701756 249.554434 
L 199.304977 249.238013 
L 201.908197 249.162971 
L 204.511418 249.327267 
L 207.114639 249.721946 
L 209.71786 250.331873 
L 212.581403 251.22711 
L 215.705268 252.43473 
L 219.349777 254.087711 
L 224.035574 256.482037 
L 232.626203 261.193842 
L 239.915221 265.072337 
L 245.381984 267.728779 
L 250.328104 269.890337 
L 255.274223 271.80598 
L 260.220343 273.477805 
L 265.166462 274.918999 
L 270.372904 276.208471 
L 276.09999 277.3883 
L 282.087397 278.392285 
L 288.855771 279.29267 
L 296.405112 280.061556 
L 304.99574 280.704812 
L 315.148301 281.233588 
L 327.643761 281.651181 
L 344.044052 281.961389 
L 367.733361 282.165405 
L 409.645216 282.269133 
L 419.537455 282.276808 
L 419.537455 282.276808 
" style="fill:none;stroke:#ffb000;stroke-dasharray:14.8,6.4;stroke-dashoffset:0;stroke-width:4;"/>
   </g>
   <g id="line2d_31">
    <path clip-path="url(#p31a50c8001)" d="M 55.086545 282.264781 
L 55.086545 282.263694 
L 97.519044 281.981452 
L 112.617725 281.637045 
L 123.551252 281.17594 
L 132.402203 280.58697 
L 139.951543 279.864713 
L 146.719917 278.990879 
L 152.707325 278.000809 
L 158.43441 276.83751 
L 164.161496 275.45214 
L 170.409226 273.7026 
L 178.218888 271.263556 
L 189.152416 267.855885 
L 194.098535 266.560847 
L 198.263688 265.695183 
L 202.168519 265.117023 
L 205.813029 264.806045 
L 209.457538 264.726258 
L 213.102047 264.875419 
L 217.006878 265.273553 
L 221.172031 265.937805 
L 225.857829 266.924345 
L 231.584914 268.370541 
L 242.518442 271.425839 
L 251.629714 273.860159 
L 258.65841 275.511716 
L 265.426784 276.873921 
L 272.195158 278.010539 
L 279.484177 279.001839 
L 287.293839 279.832185 
L 295.884468 280.519505 
L 305.776706 281.08544 
L 317.751522 281.539924 
L 332.850203 281.880495 
L 353.936291 282.116055 
L 388.298805 282.24844 
L 419.537455 282.279978 
L 419.537455 282.279978 
" style="fill:none;stroke:#a00060;stroke-width:4;"/>
   </g>
   <g id="line2d_32">
    <path clip-path="url(#p31a50c8001)" d="M 55.086545 282.292364 
L 55.086545 282.291444 
L 77.474244 282.099598 
L 92.572925 281.771311 
L 103.506452 281.322117 
L 112.097081 280.752787 
L 119.125777 280.070916 
L 125.113184 279.274613 
L 130.319626 278.368572 
L 135.005423 277.337035 
L 139.430899 276.130543 
L 143.33573 274.840252 
L 146.980239 273.410747 
L 150.364426 271.858311 
L 153.748613 270.058769 
L 156.872478 268.150921 
L 159.996343 265.979438 
L 163.120208 263.517772 
L 165.983751 260.983896 
L 168.847294 258.164825 
L 171.710836 255.04295 
L 174.574379 251.603226 
L 177.437922 247.834138 
L 180.561787 243.338688 
L 183.685652 238.441466 
L 187.069839 232.691681 
L 190.454026 226.502208 
L 194.098535 219.38812 
L 198.263688 210.771113 
L 203.47013 199.455455 
L 222.213319 158.15901 
L 226.638795 149.254887 
L 230.543626 141.888777 
L 234.188135 135.474844 
L 237.572322 129.939475 
L 240.956509 124.817591 
L 244.340696 120.108415 
L 247.464561 116.120773 
L 250.588426 112.466842 
L 253.712291 109.132333 
L 256.836156 106.100572 
L 260.220343 103.136594 
L 263.60453 100.482073 
L 266.988717 98.112192 
L 270.372904 96.002371 
L 274.017413 93.993761 
L 277.661922 92.230759 
L 281.566753 90.584248 
L 285.731906 89.071294 
L 290.157382 87.702854 
L 294.843179 86.484036 
L 300.049621 85.363857 
L 305.776706 84.366908 
L 312.024436 83.506337 
L 319.313455 82.737046 
L 327.643761 82.091769 
L 337.536 81.558406 
L 349.771138 81.133922 
L 365.650784 80.819169 
L 388.559127 80.608017 
L 419.537455 80.509294 
L 419.537455 80.509294 
" style="fill:none;stroke:#008000;stroke-dasharray:14.8,6.4;stroke-dashoffset:0;stroke-width:4;"/>
   </g>
   <g id="patch_3">
    <path d="M 36.864 293.76 
L 36.864 41.472 
" style="fill:none;stroke:#f0f0f0;stroke-linecap:square;stroke-linejoin:miter;stroke-width:3;"/>
   </g>
   <g id="patch_4">
    <path d="M 437.76 293.76 
L 437.76 41.472 
" style="fill:none;stroke:#f0f0f0;stroke-linecap:square;stroke-linejoin:miter;stroke-width:3;"/>
   </g>
   <g id="patch_5">
    <path d="M 36.864 293.76 
L 437.76 293.76 
" style="fill:none;stroke:#f0f0f0;stroke-linecap:square;stroke-linejoin:miter;stroke-width:3;"/>
   </g>
   <g id="patch_6">
    <path d="M 36.864 41.472 
L 437.76 41.472 
" style="fill:none;stroke:#f0f0f0;stroke-linecap:square;stroke-linejoin:miter;stroke-width:3;"/>
   </g>
  </g>
 </g>
 <defs>
  <clipPath id="p31a50c8001">
   <rect height="252.288" width="400.896" x="36.864" y="41.472"/>
  </clipPath>
 </defs>
</svg>
